<?xml version="1.0" standalone="no"?>
<!DOCTYPE svg PUBLIC "-//W3C//DTD SVG 20010904//EN"
 "http://www.w3.org/TR/2001/REC-SVG-20010904/DTD/svg10.dtd">
<svg version="1.0" xmlns="http://www.w3.org/2000/svg" fill="white"
 width="50.000000pt" height="50.000000pt" viewBox="0 0 50.000000 50.000000"
 preserveAspectRatio="xMidYMid meet">

<g transform="translate(0.000000,50.000000) scale(0.100000,-0.100000)"
fill="#000000" stroke="none">
<path d="M188 455 c-25 -13 -68 -37 -95 -53 l-48 -28 -3 -116 -3 -116 91 -51
c49 -28 97 -51 106 -51 21 0 161 77 186 102 26 26 27 207 1 230 -17 15 -176
108 -184 108 -2 0 -25 -11 -51 -25z m121 -109 c15 -16 15 -18 -3 -32 -13 -9
-23 -11 -30 -4 -5 5 -25 10 -42 10 -58 0 -84 -65 -44 -108 23 -24 50 -28 81
-11 21 11 49 -2 49 -23 0 -17 -72 -40 -105 -34 -39 8 -81 51 -90 93 -8 41 18
98 54 119 33 18 107 12 130 -10z m90 -60 c11 -7 11 -10 0 -17 -12 -8 -12 -10
0 -18 12 -8 11 -12 -3 -27 -15 -14 -19 -15 -27 -3 -8 12 -10 12 -18 0 -8 -12
-11 -12 -24 1 -12 12 -13 18 -4 28 9 10 9 14 -1 17 -9 4 -10 9 -2 18 12 14 57
15 79 1z"/>
<path d="M350 260 c0 -5 5 -10 10 -10 6 0 10 5 10 10 0 6 -4 10 -10 10 -5 0
-10 -4 -10 -10z"/>
</g>
</svg>
