<?xml version="1.0" standalone="no"?>
<!DOCTYPE svg PUBLIC "-//W3C//DTD SVG 20010904//EN"
 "http://www.w3.org/TR/2001/REC-SVG-20010904/DTD/svg10.dtd">
<svg version="1.0" xmlns="http://www.w3.org/2000/svg" fill="white"
 width="50.000000pt" height="50.000000pt" viewBox="0 0 50.000000 50.000000"
 preserveAspectRatio="xMidYMid meet">

<g transform="translate(0.000000,50.000000) scale(0.100000,-0.100000)"
fill="#000000" stroke="none">
<path d="M202 437 l-22 -23 22 -21 c13 -12 32 -23 43 -25 11 -2 21 -12 23 -23
5 -28 42 -65 63 -65 28 0 43 -35 23 -55 -25 -24 -35 -17 -64 44 -3 8 -12 17
-20 19 -11 4 -12 -11 -7 -76 5 -68 4 -81 -10 -86 -30 -12 -61 42 -33 59 14 9
13 110 -2 138 -6 12 -14 28 -18 36 -3 8 -14 19 -23 25 -14 9 -30 -2 -89 -62
l-73 -72 110 -110 c60 -60 113 -110 116 -110 11 0 199 181 210 203 10 17 -1
32 -92 123 -57 57 -111 104 -120 104 -8 0 -25 -10 -37 -23z"/>
</g>
</svg>
