<?xml version="1.0" standalone="no"?>
<!DOCTYPE svg PUBLIC "-//W3C//DTD SVG 20010904//EN"
 "http://www.w3.org/TR/2001/REC-SVG-20010904/DTD/svg10.dtd">
<svg version="1.0" xmlns="http://www.w3.org/2000/svg" fill="white"
 width="50.000000pt" height="50.000000pt" viewBox="0 0 50.000000 50.000000"
 preserveAspectRatio="xMidYMid meet">

<g transform="translate(0.000000,50.000000) scale(0.100000,-0.100000)"
fill="#000000" stroke="none">
<path d="M130 255 c0 -21 5 -25 30 -25 l30 0 0 -90 c0 -89 0 -90 25 -90 25 0
25 1 25 89 l0 90 28 3 c19 2 27 9 27 23 0 18 -8 20 -82 23 -83 3 -83 3 -83
-23z"/>
<path d="M347 268 c-27 -10 -42 -40 -35 -74 2 -10 22 -31 46 -47 58 -39 57
-61 -4 -54 -42 4 -45 3 -42 -17 3 -18 11 -21 52 -24 62 -4 88 17 84 67 -3 30
-10 39 -43 58 -53 30 -55 58 -2 57 29 -1 37 2 37 16 0 27 -44 36 -93 18z"/>
</g>
</svg>
